<mxfile host="65bd71144e">
    <diagram id="y1iyTtdUCG7ki8hs4XMf" name="Page-1">
        <mxGraphModel dx="1053" dy="787" grid="1" gridSize="10" guides="1" tooltips="1" connect="1" arrows="1" fold="1" page="1" pageScale="1" pageWidth="827" pageHeight="1169" math="0" shadow="0">
            <root>
                <mxCell id="0"/>
                <mxCell id="1" parent="0"/>
                <mxCell id="eWLI98ym-naXwQQl-7Ps-1" value="&lt;h4&gt;PC (host)&lt;/h4&gt;" style="rounded=0;whiteSpace=wrap;html=1;absoluteArcSize=1;arcSize=14;strokeWidth=2;shadow=0;glass=0;verticalAlign=top;align=left;spacingLeft=10;" parent="1" vertex="1">
                    <mxGeometry x="510" y="550" width="210" height="250" as="geometry"/>
                </mxCell>
                <mxCell id="eWLI98ym-naXwQQl-7Ps-2" value="&lt;h4&gt;Terminal Program&lt;/h4&gt;" style="rounded=0;whiteSpace=wrap;html=1;absoluteArcSize=1;arcSize=14;strokeWidth=2;shadow=0;glass=0;verticalAlign=top;align=left;spacingLeft=10;" parent="1" vertex="1">
                    <mxGeometry x="530" y="600" width="170" height="120" as="geometry"/>
                </mxCell>
                <mxCell id="eWLI98ym-naXwQQl-7Ps-7" value="&lt;h4 style=&quot;&quot;&gt;&lt;span style=&quot;font-weight: 400;&quot;&gt;Virtual COM Port&lt;/span&gt;&lt;/h4&gt;" style="rounded=0;whiteSpace=wrap;html=1;absoluteArcSize=1;arcSize=14;strokeWidth=2;shadow=0;glass=0;verticalAlign=middle;align=center;spacingLeft=10;" parent="1" vertex="1">
                    <mxGeometry x="545" y="740" width="140" height="40" as="geometry"/>
                </mxCell>
                <mxCell id="eWLI98ym-naXwQQl-7Ps-8" value="&lt;h4&gt;Application Board&lt;/h4&gt;" style="rounded=1;whiteSpace=wrap;html=1;absoluteArcSize=1;arcSize=14;strokeWidth=2;horizontal=1;verticalAlign=top;align=left;spacingLeft=10;" parent="1" vertex="1">
                    <mxGeometry x="60" y="570" width="300" height="230" as="geometry"/>
                </mxCell>
                <mxCell id="eWLI98ym-naXwQQl-7Ps-9" value="&lt;b&gt;&lt;font color=&quot;#808080&quot;&gt;firmware.fwu2&lt;/font&gt;&lt;/b&gt;" style="rounded=1;whiteSpace=wrap;html=1;absoluteArcSize=1;arcSize=14;strokeWidth=2;verticalAlign=top;strokeColor=#999999;" parent="1" vertex="1">
                    <mxGeometry x="70" y="620" width="95" height="170" as="geometry"/>
                </mxCell>
                <mxCell id="eWLI98ym-naXwQQl-7Ps-10" value="Shuttle board" style="rounded=1;whiteSpace=wrap;html=1;absoluteArcSize=1;arcSize=14;strokeWidth=2;" parent="1" vertex="1">
                    <mxGeometry x="70" y="550" width="120" height="20" as="geometry"/>
                </mxCell>
                <mxCell id="eWLI98ym-naXwQQl-7Ps-11" value="Sensor" style="rounded=1;whiteSpace=wrap;html=1;absoluteArcSize=1;arcSize=14;strokeWidth=2;" parent="1" vertex="1">
                    <mxGeometry x="75" y="530" width="80" height="20" as="geometry"/>
                </mxCell>
                <mxCell id="eWLI98ym-naXwQQl-7Ps-12" value="&lt;h4&gt;&lt;br&gt;&lt;/h4&gt;" style="rounded=1;whiteSpace=wrap;html=1;absoluteArcSize=1;arcSize=14;strokeWidth=2;horizontal=1;verticalAlign=top;align=left;spacingLeft=10;" parent="1" vertex="1">
                    <mxGeometry x="180" y="620" width="162.5" height="170" as="geometry"/>
                </mxCell>
                <mxCell id="eWLI98ym-naXwQQl-7Ps-17" value="SensorAPI" style="rounded=0;whiteSpace=wrap;html=1;absoluteArcSize=1;arcSize=14;strokeWidth=2;shadow=0;glass=0;verticalAlign=top;align=left;spacingLeft=10;spacing=2;spacingTop=0;" parent="1" vertex="1">
                    <mxGeometry x="221.25" y="682.5" width="110" height="30" as="geometry"/>
                </mxCell>
                <mxCell id="eWLI98ym-naXwQQl-7Ps-18" value="COINES API" style="rounded=0;whiteSpace=wrap;html=1;absoluteArcSize=1;arcSize=14;strokeWidth=2;shadow=0;glass=0;verticalAlign=top;align=left;spacingLeft=10;spacing=2;spacingTop=0;" parent="1" vertex="1">
                    <mxGeometry x="191.25" y="712.5" width="140" height="30" as="geometry"/>
                </mxCell>
                <mxCell id="eWLI98ym-naXwQQl-7Ps-21" style="edgeStyle=orthogonalEdgeStyle;rounded=0;orthogonalLoop=1;jettySize=auto;html=1;entryX=0;entryY=0.5;entryDx=0;entryDy=0;curved=1;" parent="1" source="eWLI98ym-naXwQQl-7Ps-19" target="eWLI98ym-naXwQQl-7Ps-7" edge="1">
                    <mxGeometry relative="1" as="geometry"/>
                </mxCell>
                <mxCell id="eWLI98ym-naXwQQl-7Ps-22" value="&lt;font style=&quot;font-size: 15px;&quot;&gt;USB&lt;/font&gt;" style="edgeLabel;html=1;align=center;verticalAlign=middle;resizable=0;points=[];" parent="eWLI98ym-naXwQQl-7Ps-21" vertex="1" connectable="0">
                    <mxGeometry x="-0.2498" y="-4" relative="1" as="geometry">
                        <mxPoint x="12" y="-4" as="offset"/>
                    </mxGeometry>
                </mxCell>
                <mxCell id="eWLI98ym-naXwQQl-7Ps-19" value="MCU BSP" style="rounded=1;whiteSpace=wrap;html=1;absoluteArcSize=1;arcSize=14;strokeWidth=2;shadow=0;glass=0;verticalAlign=top;align=left;spacingLeft=10;spacing=2;spacingTop=0;" parent="1" vertex="1">
                    <mxGeometry x="191.25" y="742.5" width="140" height="37.5" as="geometry"/>
                </mxCell>
                <mxCell id="5" value="" style="rounded=1;whiteSpace=wrap;html=1;strokeWidth=2;arcSize=14;absoluteArcSize=1;align=left;fillColor=none;" parent="1" vertex="1">
                    <mxGeometry x="191.25" y="650" width="140" height="130" as="geometry"/>
                </mxCell>
                <mxCell id="6" value="example.c" style="text;html=1;strokeColor=none;fillColor=none;align=center;verticalAlign=middle;whiteSpace=wrap;rounded=0;strokeWidth=2;" parent="1" vertex="1">
                    <mxGeometry x="200" y="652.5" width="60" height="30" as="geometry"/>
                </mxCell>
                <mxCell id="7" value="&lt;b&gt;example.bin&lt;/b&gt;" style="text;html=1;strokeColor=none;fillColor=none;align=center;verticalAlign=middle;whiteSpace=wrap;rounded=0;strokeWidth=2;" parent="1" vertex="1">
                    <mxGeometry x="191.25" y="620" width="60" height="30" as="geometry"/>
                </mxCell>
            </root>
        </mxGraphModel>
    </diagram>
</mxfile>